<svg width="133" height="55" viewBox="0 0 133 55" fill="none" xmlns="http://www.w3.org/2000/svg">
<path fill-rule="evenodd" clip-rule="evenodd" d="M81.5607 8.88068C81.5607 8.88068 94.796 11.4313 103.941 14.5759C113.086 17.7264 114.539 19.1181 114.539 19.1181L115.881 17.243C115.881 17.243 111.947 13.5277 103.819 11.5478C95.6966 9.57366 86.0344 8.93891 86.0344 8.93891L81.5607 8.88068Z" fill="#ED751C"/>
<path fill-rule="evenodd" clip-rule="evenodd" d="M77.6795 23.0663C77.6795 23.0663 83.4082 27.3697 88.8988 26.7641C94.3893 26.1527 92.0013 27.4862 92.0013 27.4862L86.4527 32.5176L77.3193 32.2788L77.6795 23.0663Z" fill="#ED751C"/>
<path fill-rule="evenodd" clip-rule="evenodd" d="M30.8561 18.1864C30.8561 18.1864 55.7639 14.9544 57.3559 16.7888C58.9478 18.6289 44.411 19.881 39.333 24.0621C34.2492 28.2491 35.9864 32.5468 35.9864 32.5468L33.6275 32.2148C33.6275 32.2148 33.215 24.429 32.5004 22.2744C31.7799 20.1255 30.8561 18.1864 30.8561 18.1864Z" fill="#ED751C"/>
<path fill-rule="evenodd" clip-rule="evenodd" d="M23.611 16.2938C23.611 16.2938 24.6452 15.6707 26.028 15.4203C27.8988 15.0825 30.5598 14.5817 33.9064 14.2265C37.9328 13.7897 42.8597 13.5219 47.3044 13.4112C58.1577 13.1492 60.0576 13.9062 60.0576 13.9062C60.0576 13.9062 37.1542 14.9661 32.0821 16.1773C27.0099 17.3886 27.0854 16.8936 27.0854 16.8936H24.2443L23.611 16.2938Z" fill="#ED751C"/>
<path fill-rule="evenodd" clip-rule="evenodd" d="M23.4889 12.7415C23.6865 12.6891 23.8898 12.6425 24.099 12.5959C24.6219 12.1068 25.1564 11.6351 25.6968 11.175C24.9879 11.2158 23.5819 11.2798 22.1817 11.3323L23.3495 12.5086C23.4192 12.5785 23.4657 12.66 23.4889 12.7415ZM77.8247 13.6092C77.8247 13.6092 85.3023 15.4202 89.9271 17.7438C94.5519 20.0673 96.9805 21.7561 96.7598 22.6063C96.539 23.4507 86.7258 23.4681 84.4308 22.7053C82.1416 21.9424 79.4457 18.7745 78.4116 17.144C77.3774 15.5192 77.0927 14.1275 77.3193 13.8188C77.54 13.5102 77.8247 13.6092 77.8247 13.6092ZM23.2042 19.9275C24.0641 19.3394 25.8711 27.1427 25.5747 27.2009C22.478 27.7949 20.4096 21.8434 23.2042 19.9275ZM60.8535 23.538C61.2137 19.8518 63.1892 16.8062 65.9257 15.7231C66.1755 16.4277 66.3963 17.6448 66.5997 18.7454C67.047 21.197 67.3666 23.6719 67.3666 23.6719C67.3666 23.6719 67.3085 23.9573 67.1749 24.0796C67.0645 24.1786 62.5036 23.8758 60.8535 23.538ZM64.2989 33.2455C62.428 31.5975 61.0975 28.9363 60.8419 25.8441C60.8187 25.5529 60.8012 25.2734 60.7954 24.9938C62.5094 24.9706 67.0238 24.9298 67.2678 25.1744C67.5119 25.419 65.2517 31.4519 64.2989 33.2455ZM73.688 32.5642C72.8455 33.5658 71.8113 34.3112 70.6493 34.713C70.5273 34.7363 70.4053 34.7596 70.2891 34.7829C68.7668 35.045 67.4421 34.8877 66.3847 34.5616C66.1058 34.451 65.8327 34.317 65.5655 34.1598C65.8095 33.2688 67.9127 25.7043 68.3311 25.7684C68.7262 25.8324 72.8571 31.0793 73.688 32.5642ZM67.5932 15.3329C70.7771 15.0476 73.717 17.3536 75.1405 20.8651C73.8274 21.6221 68.4066 23.9282 68.4066 23.9282C68.4066 23.9282 68.1393 21.5057 67.8663 19.1647C67.692 17.6331 67.506 16.1365 67.4944 15.3387C67.5293 15.3387 67.5641 15.3329 67.5932 15.3329ZM68.9934 24.988C68.9934 24.988 73.9204 22.6412 75.675 22.5364C75.8319 23.1653 75.9423 23.8233 75.9946 24.4989C76.2095 27.032 75.6634 29.4079 74.5943 31.2598C72.8804 29.4662 68.9934 24.988 68.9934 24.988ZM52.8472 7.49466C52.8066 7.12779 52.9344 6.50469 53.2016 6.05629C53.4108 5.69524 53.7129 5.44484 54.0848 5.51472C54.2242 5.54384 57.0886 5.37496 58.4307 6.53963C59.7728 7.7043 59.5927 7.86735 60.2725 8.12358C60.5921 8.24005 60.8942 8.34487 61.1266 8.4264C57.1932 2.88839 55.3165 1.45002 48.6175 2.54481C47.2463 2.76609 45.9158 3.02232 44.6085 3.32514C44.2309 3.80848 43.8997 4.37334 43.6092 4.99062C45.2593 4.75186 53.3062 3.58136 53.5677 3.63377C53.8698 3.69201 52.2837 4.76933 52.1558 6.77839C52.0629 8.1527 52.5625 9.1252 52.8821 9.60271C53.5444 9.53866 54.6774 9.43966 56.1706 9.36396C54.4276 9.20673 52.9867 8.78162 52.8472 7.49466ZM34.2376 31.3005L59.279 31.2423C58.3842 29.111 57.8846 26.8166 57.8381 24.5979C57.7858 22.4723 58.146 20.4109 58.9478 18.6289C61.9458 11.967 71.1606 10.7849 75.4949 16.9285C78.2024 20.7661 79.2133 25.7276 78.3476 30.2756H85.6741C85.6741 30.2756 90.5256 26.3216 92.2453 25.7101C93.9593 25.1103 95.5629 25.2617 95.5629 25.2617H117.2C117.2 25.2617 118.518 25.2792 118.972 26.0362C119.419 26.7933 118.954 26.7525 118.954 26.7525C118.954 26.7525 94.1104 27.1543 93.3434 27.4571C92.5765 27.7599 91.9839 28.4995 91.9839 28.4995C91.9839 28.4995 119.099 28.0802 119.233 28.2724C119.291 28.3597 118.78 29.1459 117.984 30.0543C110.181 29.9437 89.2764 29.9146 90.694 30.3572C91.9897 30.759 108.246 31.5509 116.078 31.912C115.677 32.2323 115.271 32.5118 114.87 32.7214C112.703 33.857 109.048 33.4785 109.048 33.4785H74.7686L75.0127 33.164C74.9546 33.1465 74.9255 33.1116 74.9604 33.0534C76.9997 29.3381 77.2089 24.2834 75.4775 20.0498C74.3619 17.3128 71.9275 15.001 69.2665 14.273C67.506 13.8014 65.4958 14.0168 63.3577 15.2572C61.8122 16.1598 60.6908 17.505 59.9704 19.1006C59.2383 20.7253 58.9129 22.6121 58.9594 24.5687C59.0233 27.265 59.7845 30.0893 61.1673 32.5351L61.969 33.956L32.0936 33.6532C32.4713 33.659 32.8373 31.7315 32.8606 30.3863C31.5243 30.1999 26.9924 29.4545 26.7949 29.2915C26.5741 29.0993 26.853 28.8547 26.853 28.8547C26.853 28.8547 31.2338 25.4772 32.5526 24.8716C32.4539 24.1495 32.3202 23.439 32.1517 22.7635C31.3732 23.7826 26.8762 28.2607 26.5625 28.1501C26.2197 28.0278 26.423 27.3872 26.423 27.3872C26.423 27.3872 26.6612 19.5374 26.9053 19.1647C27.1493 18.792 29.7231 19.1763 30.9549 20.4982C31.3209 20.8942 31.5882 21.2087 31.7799 21.4649C31.6869 21.197 31.5882 20.9291 31.4836 20.6729C29.8277 16.7072 25.6328 15.7813 22.9021 19.0773C20.7059 21.7328 21.1533 26.24 21.9725 29.3672C22.6232 31.8654 23.6516 33.5018 23.5819 33.5192C23.4715 33.5542 15.1747 33.0243 14.3148 32.4943C13.4549 31.9644 13.4375 30.8463 13.4375 30.8463L20.857 30.7473C20.5374 29.8505 20.3108 28.8431 20.1598 27.8415C20.1423 27.7425 20.1249 27.6376 20.1133 27.5328C18.9861 23.043 17.5975 16.6432 20.1249 14.3604C20.8512 13.8479 21.5832 13.4403 22.3618 13.12L20.6304 11.373C19.6136 11.3963 18.7595 11.3963 18.4109 11.3381C17.278 11.175 14.8319 8.92138 14.9423 8.61274C15.0411 8.34487 28.044 7.61695 30.7748 7.46554C36.0852 4.14041 42.0579 1.93335 48.5594 0.663863C55.485 -0.687156 59.2906 3.1912 63.0032 9.25331L63.1543 9.28243C64.2756 9.30572 64.8218 9.34066 66.0535 9.41637C65.6584 8.89809 63.9619 6.69686 61.5507 4.28017C58.7909 1.51407 56.3275 0 56.3275 0C64.3047 0.943383 72.8281 0.949206 80.4451 3.31349C85.616 4.91491 88.4862 7.68683 92.501 9.34066H92.4894C103.836 9.96376 118.321 12.6134 118.17 22.5073C118.182 22.682 118.089 22.845 117.937 22.9266C117.845 23.0838 117.711 23.2527 117.519 23.2934C117.142 23.375 108.746 23.1304 103.883 23.0256C99.0257 22.9207 99.0257 22.3267 99.2581 21.6279C99.4208 21.1446 107.869 21.3368 112.941 21.4998C113.673 20.2944 114.847 18.658 115.352 18.0233C108.752 10.319 87.6612 9.7483 79.7246 9.30572C74.513 9.31155 69.4117 9.43384 67.2388 9.49789C70.2368 9.72501 73.4614 10.1385 76.6976 10.8489C89.0091 13.5393 95.499 17.9709 95.499 17.9709C95.499 17.9709 77.5575 11.1517 65.6584 10.5869C53.7594 10.0162 41.4246 11.2391 41.4246 11.2391C39.7629 12.1766 39.0018 12.9628 38.5138 13.7897C37.8689 18.6522 37.9851 23.6836 39.1064 28.9304C39.211 29.4021 38.967 29.2624 38.874 28.9712C37.1194 23.6137 37.0032 18.6988 37.4622 13.4811C37.9502 12.6134 39.4492 11.4371 41.2561 10.5927C41.8488 7.37819 42.5343 5.04885 43.3245 3.63377C36.4338 5.36331 30.4959 8.19346 25.7026 12.3339L25.0983 12.7531C26.1209 12.3513 27.9685 11.6817 31.2977 10.6102C38.3569 8.3274 41.7384 5.52636 41.6164 5.45066C41.4943 5.38078 40.5647 9.52119 40.5299 10.022C40.5008 10.5228 38.4963 11.2507 38.4963 11.2507C38.4963 11.2507 26.5973 12.5027 23.088 14.471C21.5832 15.3212 20.9964 16.7887 20.6478 18.0524C20.2934 19.351 20.2527 20.4866 20.2527 20.935C21.9957 14.6166 29.3978 12.9337 32.7734 20.1197C34.1388 23.3924 34.3712 27.725 34.2376 31.3005Z" fill="#022135"/>
<path fill-rule="evenodd" clip-rule="evenodd" d="M117.694 17.4759C117.601 17.5167 117.176 17.2255 116.584 17.8544C115.526 18.99 114.085 21.3426 114.184 21.4183C114.329 21.5348 117.786 17.8952 117.786 17.8952L117.694 17.4759ZM79.3296 15.1465C79.3296 15.1465 88.5153 18.0466 91.0485 19.5665C93.5817 21.0922 94.1104 21.7269 94.1104 21.7269C94.1104 21.7269 84.4947 17.6564 82.5309 16.911C80.5671 16.1715 79.3296 15.1465 79.3296 15.1465Z" fill="#ED751C"/>
<path d="M4.57834 55C3.6313 55 2.75398 54.9301 1.95218 54.7904C1.16201 54.639 0.511287 54.4177 0 54.1382L0.720449 50.8072C1.28984 51.1217 1.95218 51.3662 2.69587 51.5526C3.45118 51.7389 4.17163 51.8321 4.85722 51.8321C5.61253 51.8321 6.1703 51.7622 6.53052 51.6225C6.90237 51.4827 7.13477 51.2148 7.22773 50.8072C7.23935 50.7606 7.25097 50.6907 7.25097 50.5976C7.25097 50.318 7.11153 50.1026 6.83265 49.9453C6.56538 49.7939 6.04248 49.5843 5.25231 49.3164L4.60158 49.1068C3.59063 48.7516 2.84694 48.3265 2.37051 47.8256C1.88827 47.3307 1.65006 46.6959 1.65006 45.9156C1.65006 45.5429 1.68492 45.211 1.76626 44.914C2.05677 43.5164 2.74235 42.4798 3.81141 41.7926C4.89208 41.0938 6.42594 40.7444 8.41299 40.7444C9.13925 40.7444 9.88875 40.8085 10.6673 40.9308C11.44 41.0589 12.0733 41.2045 12.573 41.3734L11.8526 44.7276C10.7022 44.2152 9.54014 43.9589 8.36651 43.9589C7.60539 43.9589 7.01857 44.023 6.60024 44.1453C6.19354 44.2559 5.95533 44.5063 5.87979 44.8907C5.86236 44.9373 5.85655 45.0013 5.85655 45.077C5.85655 45.3274 5.97857 45.5196 6.2284 45.6594C6.47242 45.7875 6.9779 45.9563 7.73902 46.1718L8.18058 46.3116C9.37165 46.6726 10.2141 47.121 10.7138 47.6626C11.2251 48.1925 11.4807 48.8447 11.4807 49.6192C11.4807 49.9162 11.4342 50.3122 11.3413 50.8072C11.0624 52.1582 10.3942 53.2006 9.3426 53.9285C8.28517 54.6448 6.69902 55 4.57834 55Z" fill="#ED751C"/>
<path d="M14.9084 40.954H21.7178C23.0948 40.954 24.1639 41.3209 24.925 42.0488C25.6803 42.7651 26.0638 43.7027 26.0638 44.8673C26.0638 45.24 26.0173 45.636 25.9243 46.0553C25.5989 47.5927 24.9482 48.8156 23.9721 49.7124C22.996 50.615 21.6946 51.0634 20.0678 51.0634H16.7909L16.0239 54.7903H12.0034L14.9084 40.954ZM19.5332 47.9887C20.2304 47.9887 20.7475 47.8198 21.0903 47.4762C21.4447 47.1384 21.683 46.6609 21.8108 46.0553C21.8689 45.8107 21.9037 45.5545 21.9037 45.2866C21.9037 44.8848 21.7875 44.582 21.5551 44.3782C21.3344 44.1627 20.9799 44.0521 20.4861 44.0521H18.3015L17.4648 47.9887H19.5332Z" fill="#ED751C"/>
<path d="M31.708 55C29.8604 55 28.4369 54.604 27.4317 53.8121C26.4208 53.0084 25.9211 51.7739 25.9211 50.1084C25.9211 49.4737 26.0025 48.7457 26.1768 47.9188C26.7171 45.3915 27.67 43.5629 29.0353 42.4449C30.4123 41.3151 32.318 40.7444 34.7524 40.7444C36.6233 40.7444 38.0584 41.1521 39.0519 41.9557C40.0396 42.7652 40.5393 43.9997 40.5393 45.6594C40.5393 46.329 40.4521 47.0803 40.2836 47.9188C39.7549 50.3879 38.7963 52.1932 37.4018 53.3229C36.019 54.441 34.125 55 31.708 55ZM32.4284 51.5759C33.4626 51.5759 34.2702 51.2905 34.8454 50.714C35.4322 50.1259 35.8738 49.1941 36.1701 47.9188C36.3095 47.2666 36.3793 46.6843 36.3793 46.1718C36.3793 45.4614 36.1933 44.9547 35.8215 44.6577C35.4613 44.3491 34.8686 44.1919 34.032 44.1919C32.9746 44.1919 32.1611 44.4714 31.5918 45.0304C31.0166 45.5895 30.5808 46.5562 30.2903 47.9188C30.1334 48.6351 30.0579 49.2174 30.0579 49.6658C30.0579 50.353 30.2438 50.8421 30.6157 51.1333C30.9875 51.4303 31.5918 51.5759 32.4284 51.5759Z" fill="#ED751C"/>
<path d="M43.2234 40.954H50.4046C51.6886 40.954 52.6822 41.2918 53.3794 41.9557C54.0766 42.6079 54.4252 43.493 54.4252 44.6111C54.4252 45.0013 54.3845 45.4206 54.309 45.869C54.1056 46.789 53.7047 47.6043 53.1005 48.3148C52.4962 49.031 51.7526 49.5843 50.8694 49.9686C51.0089 50.0792 51.1076 50.219 51.1715 50.3879C51.2471 50.5626 51.3226 50.8188 51.404 51.1566L52.2406 54.7903H48.0573L47.2904 51.4594C47.2091 51.1973 47.1045 51.0168 46.9651 50.9236C46.8256 50.8188 46.6048 50.7606 46.3143 50.7606H45.1756L44.3389 54.7903H40.3183L43.2234 40.954ZM47.9644 47.6625C48.5512 47.6625 49.0393 47.5111 49.4285 47.1967C49.812 46.888 50.0676 46.4455 50.1955 45.869C50.2536 45.5312 50.2884 45.3041 50.2884 45.1934C50.2884 44.8207 50.1722 44.5412 49.9398 44.3549C49.719 44.1569 49.3646 44.0521 48.8708 44.0521H46.6164L45.8495 47.6625H47.9644Z" fill="#ED751C"/>
<path d="M59.241 43.9589H55.3599L55.9641 40.954H67.7469L67.1427 43.9589H63.2616L60.9608 54.7903H56.9402L59.241 43.9589Z" fill="#ED751C"/>
<path d="M70.3754 55C69.4283 55 68.551 54.9301 67.7492 54.7904C66.959 54.639 66.3083 54.4177 65.797 54.1382L66.5175 50.8072C67.0869 51.1217 67.7492 51.3662 68.4929 51.5526C69.2482 51.7389 69.9687 51.8321 70.6542 51.8321C71.4096 51.8321 71.9673 51.7622 72.3276 51.6225C72.6994 51.4827 72.9318 51.2148 73.0248 50.8072C73.0364 50.7606 73.048 50.6907 73.048 50.5976C73.048 50.318 72.9086 50.1026 72.6297 49.9453C72.3624 49.7939 71.8395 49.5843 71.0493 49.3164L70.3986 49.1068C69.3877 48.7516 68.644 48.3265 68.1675 47.8256C67.6853 47.3307 67.4471 46.6959 67.4471 45.9156C67.4471 45.5429 67.4819 45.211 67.5633 44.914C67.8538 43.5164 68.5394 42.4798 69.6084 41.7926C70.6891 41.0938 72.223 40.7444 74.21 40.7444C74.9363 40.7444 75.6858 40.8085 76.4643 40.9308C77.2371 41.0589 77.8704 41.2045 78.37 41.3734L77.6496 44.7276C76.4992 44.2152 75.3372 43.9589 74.1635 43.9589C73.4024 43.9589 72.8156 44.023 72.3973 44.1453C71.9906 44.2559 71.7524 44.5063 71.6768 44.8907C71.6594 44.9373 71.6536 45.0013 71.6536 45.077C71.6536 45.3274 71.7756 45.5196 72.0254 45.6594C72.2695 45.7875 72.7749 45.9563 73.536 46.1718L73.9776 46.3116C75.1687 46.6726 76.0111 47.121 76.5108 47.6626C77.0221 48.1925 77.2777 48.8447 77.2777 49.6192C77.2777 49.9162 77.2313 50.3122 77.1383 50.8072C76.8594 52.1582 76.1912 53.2006 75.1396 53.9285C74.0822 54.6448 72.496 55 70.3754 55Z" fill="#ED751C"/>
<path d="M85.0049 55C83.0062 55 81.4375 54.5458 80.3103 53.6257C79.1773 52.7114 78.6138 51.407 78.6138 49.7124C78.6138 49.1708 78.6719 48.5827 78.7997 47.9421C79.2935 45.5545 80.2754 43.7609 81.7512 42.5613C83.2386 41.3501 85.3302 40.7444 88.0261 40.7444C88.8279 40.7444 89.5483 40.8085 90.1874 40.9308C90.8207 41.0589 91.4482 41.2336 92.0699 41.4665L91.3262 45.0071C90.2223 44.4656 88.9673 44.1919 87.5613 44.1919C86.2424 44.1919 85.2024 44.4947 84.4471 45.1003C83.7034 45.6943 83.1921 46.6377 82.9132 47.9421C82.8028 48.4895 82.7505 48.9379 82.7505 49.2931C82.7505 50.1026 83.0062 50.6849 83.5175 51.0401C84.0288 51.4012 84.8654 51.5759 86.0274 51.5759C87.4509 51.5759 88.8221 51.3138 90.141 50.7839L89.3973 54.3245C87.968 54.7787 86.5038 55 85.0049 55Z" fill="#ED751C"/>
<path d="M98.5868 40.954H102.84L105.21 54.7903H101.027L100.516 51.8554H96.3325L94.5662 54.7903H90.3597L98.5868 40.954ZM100.539 48.9437L99.865 44.8906L97.4713 48.9437H100.539Z" fill="#ED751C"/>
<path d="M109.62 40.954H116.801C118.085 40.954 119.079 41.2918 119.776 41.9557C120.473 42.6079 120.822 43.493 120.822 44.6111C120.822 45.0013 120.781 45.4206 120.706 45.869C120.502 46.789 120.102 47.6043 119.497 48.3148C118.893 49.031 118.149 49.5843 117.266 49.9686C117.406 50.0792 117.504 50.219 117.568 50.3879C117.644 50.5626 117.719 50.8188 117.801 51.1566L118.637 54.7903H114.454L113.687 51.4594C113.606 51.1973 113.501 51.0168 113.362 50.9236C113.222 50.8188 113.002 50.7606 112.711 50.7606H111.572L110.736 54.7903H106.715L109.62 40.954ZM114.361 47.6625C114.948 47.6625 115.436 47.5111 115.825 47.1967C116.209 46.888 116.464 46.4455 116.592 45.869C116.65 45.5312 116.685 45.3041 116.685 45.1934C116.685 44.8207 116.569 44.5412 116.337 44.3549C116.116 44.1569 115.761 44.0521 115.268 44.0521H113.013L112.246 47.6625H114.361Z" fill="#ED751C"/>
<path d="M124.778 55C123.831 55 122.953 54.9301 122.152 54.7904C121.362 54.639 120.711 54.4177 120.199 54.1382L120.92 50.8072C121.489 51.1217 122.152 51.3662 122.895 51.5526C123.651 51.7389 124.371 51.8321 125.057 51.8321C125.812 51.8321 126.37 51.7622 126.73 51.6225C127.102 51.4827 127.334 51.2148 127.427 50.8072C127.439 50.7606 127.45 50.6907 127.45 50.5976C127.45 50.318 127.311 50.1026 127.032 49.9453C126.765 49.7939 126.242 49.5843 125.452 49.3164L124.801 49.1068C123.79 48.7516 123.046 48.3265 122.57 47.8256C122.088 47.3307 121.85 46.6959 121.85 45.9156C121.85 45.5429 121.884 45.211 121.966 44.914C122.256 43.5164 122.942 42.4798 124.011 41.7926C125.092 41.0938 126.625 40.7444 128.612 40.7444C129.339 40.7444 130.088 40.8085 130.867 40.9308C131.64 41.0589 132.273 41.2045 132.772 41.3734L132.052 44.7276C130.902 44.2152 129.74 43.9589 128.566 43.9589C127.805 43.9589 127.218 44.023 126.8 44.1453C126.393 44.2559 126.155 44.5063 126.079 44.8907C126.062 44.9373 126.056 45.0013 126.056 45.077C126.056 45.3274 126.178 45.5196 126.428 45.6594C126.672 45.7875 127.177 45.9563 127.939 46.1718L128.38 46.3116C129.571 46.6726 130.414 47.121 130.913 47.6626C131.425 48.1925 131.68 48.8447 131.68 49.6192C131.68 49.9162 131.634 50.3122 131.541 50.8072C131.262 52.1582 130.594 53.2006 129.542 53.9285C128.485 54.6448 126.899 55 124.778 55Z" fill="#ED751C"/>
</svg>
