<svg width="54" height="54" viewBox="0 0 54 54" fill="none" xmlns="http://www.w3.org/2000/svg">
<circle cx="27" cy="27" r="27" fill="#F9F9F9"/>
<path fill-rule="evenodd" clip-rule="evenodd" d="M32.943 18.4781C32.943 18.4781 38.1266 19.477 41.7083 20.7086C45.2899 21.9425 45.8588 22.4876 45.8588 22.4876L46.3844 21.7532C46.3844 21.7532 44.8439 20.2981 41.6605 19.5226C38.4793 18.7495 34.6952 18.5009 34.6952 18.5009L32.943 18.4781Z" fill="#ED751C"/>
<path fill-rule="evenodd" clip-rule="evenodd" d="M31.423 24.0339C31.423 24.0339 33.6666 25.7193 35.817 25.4821C37.9673 25.2426 37.0321 25.7649 37.0321 25.7649L34.859 27.7355L31.2819 27.6419L31.423 24.0339Z" fill="#ED751C"/>
<path fill-rule="evenodd" clip-rule="evenodd" d="M13.0847 22.1226C13.0847 22.1226 22.8398 20.8569 23.4633 21.5753C24.0868 22.296 18.3935 22.7863 16.4047 24.4239C14.4136 26.0637 15.094 27.7469 15.094 27.7469L14.1701 27.6169C14.1701 27.6169 14.0086 24.5676 13.7287 23.7237C13.4465 22.8821 13.0847 22.1226 13.0847 22.1226Z" fill="#ED751C"/>
<path fill-rule="evenodd" clip-rule="evenodd" d="M10.2472 21.3814C10.2472 21.3814 10.6522 21.1374 11.1938 21.0393C11.9265 20.9071 12.9687 20.7109 14.2794 20.5718C15.8563 20.4007 17.7859 20.2958 19.5267 20.2525C23.7773 20.1499 24.5214 20.4464 24.5214 20.4464C24.5214 20.4464 15.5514 20.8614 13.5649 21.3358C11.5783 21.8102 11.6079 21.6164 11.6079 21.6164H10.4952L10.2472 21.3814Z" fill="#ED751C"/>
<path fill-rule="evenodd" clip-rule="evenodd" d="M10.1994 19.9902C10.2767 19.9696 10.3564 19.9514 10.4383 19.9332C10.6431 19.7416 10.8524 19.5568 11.0641 19.3767C10.7865 19.3926 10.2358 19.4177 9.68738 19.4382L10.1448 19.8989C10.1721 19.9263 10.1903 19.9582 10.1994 19.9902ZM31.4798 20.33C31.4798 20.33 34.4084 21.0393 36.2197 21.9493C38.031 22.8593 38.9822 23.5207 38.8957 23.8537C38.8092 24.1844 34.9659 24.1912 34.0671 23.8925C33.1705 23.5937 32.1147 22.353 31.7097 21.7144C31.3046 21.0781 31.1931 20.533 31.2819 20.4121C31.3683 20.2912 31.4798 20.33 31.4798 20.33ZM10.0879 22.8046C10.4246 22.5742 11.1323 25.6304 11.0163 25.6532C9.80343 25.8858 8.99336 23.5549 10.0879 22.8046ZM24.8331 24.2186C24.9742 22.7749 25.7479 21.5821 26.8196 21.1579C26.9175 21.4339 27.0039 21.9105 27.0836 22.3416C27.2588 23.3018 27.3839 24.2711 27.3839 24.2711C27.3839 24.2711 27.3612 24.3828 27.3089 24.4307C27.2656 24.4695 25.4794 24.3509 24.8331 24.2186ZM26.1825 28.0205C25.4498 27.3751 24.9287 26.3328 24.8286 25.1218C24.8195 25.0077 24.8126 24.8982 24.8104 24.7888C25.4816 24.7797 27.2497 24.7637 27.3453 24.8595C27.4408 24.9553 26.5557 27.3181 26.1825 28.0205ZM29.8597 27.7537C29.5297 28.146 29.1247 28.4379 28.6696 28.5953C28.6218 28.6044 28.574 28.6135 28.5285 28.6226C27.9323 28.7253 27.4135 28.6637 26.9994 28.536C26.8902 28.4926 26.7832 28.4402 26.6785 28.3786C26.7741 28.0296 27.5978 25.067 27.7617 25.0921C27.9164 25.1172 29.5343 27.1721 29.8597 27.7537ZM27.4727 21.0051C28.7197 20.8933 29.8711 21.7965 30.4286 23.1718C29.9143 23.4682 27.7913 24.3714 27.7913 24.3714C27.7913 24.3714 27.6866 23.4226 27.5796 22.5058C27.5114 21.906 27.4386 21.3198 27.434 21.0074C27.4477 21.0074 27.4613 21.0051 27.4727 21.0051ZM28.0211 24.7865C28.0211 24.7865 29.9507 23.8674 30.6379 23.8263C30.6994 24.0726 30.7426 24.3304 30.7631 24.5949C30.8473 25.587 30.6334 26.5175 30.2147 27.2428C29.5434 26.5404 28.0211 24.7865 28.0211 24.7865ZM21.6975 17.9353C21.6815 17.7916 21.7316 17.5475 21.8363 17.3719C21.9182 17.2305 22.0365 17.1325 22.1822 17.1598C22.2368 17.1712 23.3586 17.1051 23.8842 17.5612C24.4099 18.0174 24.3393 18.0812 24.6056 18.1816C24.7307 18.2272 24.849 18.2682 24.9401 18.3002C23.3995 16.1312 22.6646 15.5679 20.0409 15.9967C19.5039 16.0833 18.9828 16.1837 18.4708 16.3023C18.3229 16.4916 18.1932 16.7128 18.0794 16.9546C18.7257 16.8611 21.8772 16.4026 21.9796 16.4232C22.098 16.446 21.4767 16.8679 21.4267 17.6547C21.3903 18.193 21.586 18.5739 21.7111 18.7609C21.9705 18.7358 22.4143 18.697 22.9991 18.6674C22.3164 18.6058 21.7521 18.4393 21.6975 17.9353ZM14.409 27.2588L24.2165 27.236C23.866 26.4012 23.6703 25.5026 23.6521 24.6337C23.6316 23.8012 23.7727 22.9939 24.0867 22.296C25.2609 19.6868 28.8698 19.2239 30.5674 21.63C31.6278 23.133 32.0237 25.0761 31.6846 26.8574H34.554C34.554 26.8574 36.4541 25.3088 37.1276 25.0693C37.7989 24.8344 38.4269 24.8937 38.4269 24.8937H46.9009C46.9009 24.8937 47.4174 24.9005 47.5949 25.197C47.7702 25.4935 47.5881 25.4775 47.5881 25.4775C47.5881 25.4775 37.8581 25.6349 37.5577 25.7535C37.2573 25.8721 37.0252 26.1618 37.0252 26.1618C37.0252 26.1618 47.645 25.9975 47.6973 26.0728C47.7201 26.107 47.5198 26.4149 47.2081 26.7707C44.1521 26.7274 35.9649 26.716 36.5201 26.8893C37.0275 27.0467 43.3944 27.3568 46.4617 27.4982C46.3047 27.6237 46.1454 27.7332 45.9884 27.8153C45.1397 28.26 43.7084 28.1118 43.7084 28.1118H30.2829L30.3785 27.9886C30.3557 27.9818 30.3444 27.9681 30.358 27.9453C31.1567 26.4902 31.2386 24.5105 30.5605 22.8525C30.1236 21.7805 29.1702 20.8751 28.128 20.59C27.4386 20.4053 26.6512 20.4896 25.8139 20.9754C25.2086 21.3289 24.7694 21.8558 24.4872 22.4807C24.2005 23.117 24.0731 23.856 24.0913 24.6223C24.1163 25.6782 24.4144 26.7844 24.956 27.7423L25.27 28.2988L13.5694 28.1802C13.7173 28.1825 13.8607 27.4275 13.8698 26.9007C13.3464 26.8277 11.5715 26.5358 11.4941 26.4719C11.4077 26.3967 11.5169 26.3009 11.5169 26.3009C11.5169 26.3009 13.2326 24.9781 13.7492 24.7409C13.7105 24.4581 13.6581 24.1798 13.5921 23.9153C13.2872 24.3144 11.526 26.0682 11.4031 26.0249C11.2689 25.977 11.3485 25.7261 11.3485 25.7261C11.3485 25.7261 11.4418 22.6518 11.5374 22.5058C11.6329 22.3598 12.641 22.5104 13.1234 23.0281C13.2667 23.1832 13.3714 23.3063 13.4465 23.4067C13.4101 23.3018 13.3714 23.1968 13.3305 23.0965C12.6819 21.5433 11.039 21.1807 9.96955 22.4716C9.10941 23.5116 9.28462 25.2768 9.60547 26.5016C9.86032 27.48 10.2631 28.1209 10.2358 28.1277C10.1925 28.1414 6.94313 27.9339 6.60636 27.7263C6.26958 27.5188 6.26276 27.0809 6.26276 27.0809L9.16857 27.0421C9.04342 26.6909 8.95467 26.2963 8.89551 25.904C8.88868 25.8653 8.88186 25.8242 8.87731 25.7832C8.43586 24.0247 7.89201 21.5182 8.88186 20.6242C9.16629 20.4235 9.45301 20.2639 9.75792 20.1384L9.07983 19.4542C8.68161 19.4633 8.34711 19.4633 8.21058 19.4405C7.76686 19.3767 6.80888 18.494 6.85211 18.3732C6.89079 18.2682 11.9834 17.9832 13.0528 17.9239C15.1327 16.6216 17.4719 15.7572 20.0182 15.26C22.7305 14.7309 24.221 16.2498 25.675 18.624L25.7342 18.6354C26.1734 18.6446 26.3873 18.6582 26.8697 18.6879C26.715 18.4849 26.0505 17.6228 25.1062 16.6763C24.0253 15.593 23.0605 15 23.0605 15C26.1848 15.3695 29.5229 15.3718 32.5061 16.2977C34.5313 16.9249 35.6554 18.0105 37.2278 18.6582H37.2232C41.6673 18.9023 47.3401 19.94 47.2809 23.8149C47.2855 23.8833 47.2491 23.9472 47.1899 23.9791C47.1535 24.0407 47.1012 24.1068 47.0261 24.1228C46.8782 24.1547 43.5901 24.0589 41.6855 24.0179C39.7831 23.9768 39.7831 23.7442 39.8742 23.4705C39.9379 23.2812 43.2465 23.3565 45.233 23.4204C45.5197 22.9482 45.9793 22.3074 46.1773 22.0588C43.5923 19.0414 35.3323 18.8179 32.2239 18.6446C30.1828 18.6468 28.1849 18.6947 27.3339 18.7198C28.508 18.8088 29.7709 18.9707 31.0384 19.2489C35.8602 20.3026 38.4019 22.0382 38.4019 22.0382C38.4019 22.0382 31.3752 19.3675 26.715 19.1463C22.0547 18.9228 17.2238 19.4018 17.2238 19.4018C16.573 19.7689 16.275 20.0768 16.0838 20.4007C15.8312 22.3051 15.8767 24.2756 16.3159 26.3305C16.3569 26.5153 16.2613 26.4605 16.2249 26.3465C15.5377 24.2482 15.4922 22.3233 15.6719 20.2798C15.8631 19.94 16.4502 19.4793 17.1579 19.1486C17.39 17.8896 17.6585 16.9774 17.9679 16.4232C15.2692 17.1005 12.9436 18.2089 11.0663 19.8305L10.8297 19.9947C11.2302 19.8374 11.9538 19.5751 13.2576 19.1554C16.0224 18.2614 17.3467 17.1644 17.2989 17.1347C17.2511 17.1074 16.8871 18.7289 16.8734 18.9251C16.862 19.1212 16.077 19.4063 16.077 19.4063C16.077 19.4063 11.4168 19.8967 10.0424 20.6675C9.45301 21.0005 9.22318 21.5753 9.08665 22.0702C8.94785 22.5788 8.93192 23.0235 8.93192 23.1991C9.61457 20.7246 12.5136 20.0654 13.8356 22.8798C14.3704 24.1616 14.4614 25.8584 14.409 27.2588Z" fill="#022135"/>
<path fill-rule="evenodd" clip-rule="evenodd" d="M47.0943 21.8444C47.0579 21.8604 46.8918 21.7463 46.6597 21.9927C46.2456 22.4374 45.6813 23.3588 45.7199 23.3884C45.7768 23.4341 47.1307 22.0086 47.1307 22.0086L47.0943 21.8444ZM32.0692 20.9321C32.0692 20.9321 35.6668 22.0679 36.6589 22.6632C37.651 23.2607 37.8581 23.5093 37.8581 23.5093C37.8581 23.5093 34.0921 21.9151 33.323 21.6232C32.5539 21.3335 32.0692 20.9321 32.0692 20.9321Z" fill="#ED751C"/>
<path d="M2.79309 36.5406C2.42219 36.5406 2.07859 36.5132 1.76457 36.4585C1.4551 36.3992 1.20024 36.3125 1 36.2031L1.28216 34.8985C1.50516 35.0217 1.76457 35.1175 2.05583 35.1904C2.35165 35.2634 2.63381 35.2999 2.90232 35.2999C3.19813 35.2999 3.41658 35.2725 3.55766 35.2178C3.70329 35.1631 3.79431 35.0582 3.83072 34.8985C3.83527 34.8803 3.83982 34.8529 3.83982 34.8164C3.83982 34.7069 3.78521 34.6225 3.67599 34.561C3.57132 34.5017 3.36652 34.4196 3.05705 34.3147L2.8022 34.2325C2.40626 34.0934 2.115 33.9269 1.9284 33.7308C1.73954 33.5369 1.64624 33.2883 1.64624 32.9827C1.64624 32.8368 1.6599 32.7068 1.69175 32.5904C1.80553 32.0431 2.07404 31.6371 2.49273 31.368C2.91597 31.0943 3.5167 30.9575 4.29492 30.9575C4.57936 30.9575 4.8729 30.9825 5.17782 31.0304C5.48046 31.0806 5.72849 31.1376 5.92418 31.2038L5.64202 32.5175C5.19147 32.3168 4.73637 32.2164 4.27672 32.2164C3.97863 32.2164 3.7488 32.2415 3.58497 32.2894C3.42568 32.3327 3.33239 32.4308 3.30281 32.5813C3.29598 32.5996 3.2937 32.6247 3.2937 32.6543C3.2937 32.7524 3.34149 32.8276 3.43934 32.8824C3.53491 32.9325 3.73288 32.9987 4.03097 33.0831L4.2039 33.1378C4.67038 33.2792 5.00033 33.4548 5.19602 33.6669C5.39627 33.8745 5.49639 34.1299 5.49639 34.4332C5.49639 34.5496 5.47818 34.7047 5.44178 34.8985C5.33255 35.4276 5.07087 35.8359 4.659 36.121C4.24486 36.4015 3.62365 36.5406 2.79309 36.5406Z" fill="#ED751C"/>
<path d="M6.83885 31.0396H9.50573C10.045 31.0396 10.4637 31.1832 10.7618 31.4683C11.0576 31.7488 11.2078 32.116 11.2078 32.5722C11.2078 32.7181 11.1896 32.8732 11.1532 33.0374C11.0258 33.6396 10.7709 34.1185 10.3886 34.4697C10.0063 34.8232 9.49663 34.9988 8.85949 34.9988H7.57611L7.27574 36.4585H5.7011L6.83885 31.0396ZM8.65014 33.7946C8.9232 33.7946 9.12572 33.7285 9.25998 33.5939C9.39878 33.4617 9.49208 33.2746 9.54214 33.0374C9.56489 32.9417 9.57855 32.8413 9.57855 32.7364C9.57855 32.579 9.53304 32.4604 9.44202 32.3806C9.35555 32.2962 9.21674 32.2529 9.02333 32.2529H8.16774L7.84007 33.7946H8.65014Z" fill="#ED751C"/>
<path d="M13.4183 36.5406C12.6947 36.5406 12.1372 36.3855 11.7436 36.0754C11.3476 35.7606 11.1519 35.2771 11.1519 34.6248C11.1519 34.3762 11.1838 34.0911 11.2521 33.7673C11.4637 32.7775 11.8369 32.0613 12.3716 31.6234C12.9109 31.181 13.6573 30.9575 14.6107 30.9575C15.3434 30.9575 15.9055 31.1171 16.2946 31.4318C16.6814 31.7489 16.8771 32.2324 16.8771 32.8824C16.8771 33.1447 16.843 33.4389 16.777 33.7673C16.5699 34.7343 16.1945 35.4413 15.6483 35.8838C15.1068 36.3217 14.365 36.5406 13.4183 36.5406ZM13.7005 35.1996C14.1055 35.1996 14.4218 35.0878 14.6471 34.862C14.8769 34.6317 15.0499 34.2668 15.1659 33.7673C15.2205 33.5118 15.2478 33.2838 15.2478 33.0831C15.2478 32.8048 15.175 32.6064 15.0294 32.4901C14.8883 32.3692 14.6562 32.3076 14.3285 32.3076C13.9144 32.3076 13.5958 32.4171 13.3728 32.6361C13.1476 32.855 12.9769 33.2336 12.8631 33.7673C12.8017 34.0478 12.7721 34.2759 12.7721 34.4515C12.7721 34.7206 12.8449 34.9122 12.9906 35.0262C13.1362 35.1425 13.3728 35.1996 13.7005 35.1996Z" fill="#ED751C"/>
<path d="M17.9283 31.0396H20.7408C21.2437 31.0396 21.6328 31.1718 21.9059 31.4318C22.179 31.6873 22.3155 32.0339 22.3155 32.4718C22.3155 32.6246 22.2996 32.7888 22.27 32.9645C22.1903 33.3248 22.0333 33.6441 21.7967 33.9224C21.56 34.2029 21.2688 34.4196 20.9229 34.5701C20.9775 34.6134 21.0162 34.6681 21.0412 34.7343C21.0708 34.8027 21.1004 34.9031 21.1322 35.0353L21.4599 36.4585H19.8215L19.5212 35.1539C19.4893 35.0513 19.4484 34.9806 19.3937 34.9441C19.3391 34.9031 19.2527 34.8803 19.1389 34.8803H18.6929L18.3652 36.4585H16.7906L17.9283 31.0396ZM19.7851 33.6669C20.015 33.6669 20.2061 33.6076 20.3586 33.4845C20.5087 33.3636 20.6089 33.1903 20.6589 32.9645C20.6817 32.8322 20.6953 32.7432 20.6953 32.6999C20.6953 32.5539 20.6498 32.4445 20.5588 32.3715C20.4723 32.2939 20.3335 32.2529 20.1401 32.2529H19.2572L18.9568 33.6669H19.7851Z" fill="#ED751C"/>
<path d="M24.2016 32.2164H22.6815L22.9182 31.0396H27.5329L27.2963 32.2164H25.7762L24.8751 36.4585H23.3005L24.2016 32.2164Z" fill="#ED751C"/>
<path d="M28.5623 36.5406C28.1914 36.5406 27.8478 36.5132 27.5338 36.4585C27.2243 36.3992 26.9695 36.3125 26.7692 36.2031L27.0514 34.8985C27.2744 35.0217 27.5338 35.1175 27.8251 35.1904C28.1209 35.2634 28.403 35.2999 28.6715 35.2999C28.9674 35.2999 29.1858 35.2725 29.3269 35.2178C29.4725 35.1631 29.5635 35.0582 29.5999 34.8985C29.6045 34.8803 29.6091 34.8529 29.6091 34.8164C29.6091 34.7069 29.5544 34.6225 29.4452 34.561C29.3405 34.5017 29.1357 34.4196 28.8263 34.3147L28.5714 34.2325C28.1755 34.0934 27.8842 33.9269 27.6976 33.7308C27.5088 33.5369 27.4155 33.2883 27.4155 32.9827C27.4155 32.8368 27.4291 32.7068 27.461 32.5904C27.5748 32.0431 27.8433 31.6371 28.262 31.368C28.6852 31.0943 29.2859 30.9575 30.0642 30.9575C30.3486 30.9575 30.6421 30.9825 30.947 31.0304C31.2497 31.0806 31.4977 31.1376 31.6934 31.2038L31.4112 32.5175C30.9607 32.3168 30.5056 32.2164 30.0459 32.2164C29.7479 32.2164 29.518 32.2415 29.3542 32.2894C29.1949 32.3327 29.1016 32.4308 29.072 32.5813C29.0652 32.5996 29.0629 32.6247 29.0629 32.6543C29.0629 32.7524 29.1107 32.8276 29.2086 32.8824C29.3041 32.9325 29.5021 32.9987 29.8002 33.0831L29.9731 33.1378C30.4396 33.2792 30.7696 33.4548 30.9652 33.6669C31.1655 33.8745 31.2656 34.1299 31.2656 34.4332C31.2656 34.5496 31.2474 34.7047 31.211 34.8985C31.1018 35.4276 30.8401 35.8359 30.4282 36.121C30.0141 36.4015 29.3929 36.5406 28.5623 36.5406Z" fill="#ED751C"/>
<path d="M34.2919 36.5406C33.5092 36.5406 32.8948 36.3627 32.4533 36.0024C32.0096 35.6443 31.7889 35.1334 31.7889 34.4697C31.7889 34.2576 31.8116 34.0273 31.8617 33.7764C32.0551 32.8413 32.4397 32.1389 33.0176 31.669C33.6002 31.1947 34.4194 30.9575 35.4752 30.9575C35.7892 30.9575 36.0714 30.9825 36.3217 31.0304C36.5697 31.0806 36.8155 31.149 37.0589 31.2403L36.7677 32.6269C36.3353 32.4148 35.8438 32.3076 35.2931 32.3076C34.7766 32.3076 34.3693 32.4262 34.0735 32.6634C33.7822 32.8961 33.582 33.2655 33.4727 33.7764C33.4295 33.9908 33.409 34.1664 33.409 34.3055C33.409 34.6225 33.5092 34.8506 33.7094 34.9897C33.9096 35.1311 34.2373 35.1996 34.6924 35.1996C35.2499 35.1996 35.7869 35.0969 36.3035 34.8894L36.0122 36.2761C35.4524 36.4539 34.879 36.5406 34.2919 36.5406Z" fill="#ED751C"/>
<path d="M39.6113 31.0396H41.2769L42.2053 36.4585H40.567L40.3667 35.309H38.7284L38.0366 36.4585H36.3892L39.6113 31.0396ZM40.3758 34.1687L40.1119 32.5813L39.1744 34.1687H40.3758Z" fill="#ED751C"/>
<path d="M43.9325 31.0396H46.745C47.2479 31.0396 47.637 31.1718 47.91 31.4318C48.1831 31.6873 48.3196 32.0339 48.3196 32.4718C48.3196 32.6246 48.3037 32.7888 48.2741 32.9645C48.1945 33.3248 48.0375 33.6441 47.8008 33.9224C47.5642 34.2029 47.2729 34.4196 46.927 34.5701C46.9816 34.6134 47.0203 34.6681 47.0453 34.7343C47.0749 34.8027 47.1045 34.9031 47.1364 35.0353L47.464 36.4585H45.8257L45.5253 35.1539C45.4935 35.0513 45.4525 34.9806 45.3979 34.9441C45.3433 34.9031 45.2568 34.8803 45.143 34.8803H44.697L44.3694 36.4585H42.7947L43.9325 31.0396ZM45.7893 33.6669C46.0191 33.6669 46.2102 33.6076 46.3627 33.4845C46.5129 33.3636 46.613 33.1903 46.6631 32.9645C46.6858 32.8322 46.6995 32.7432 46.6995 32.6999C46.6995 32.5539 46.654 32.4445 46.5629 32.3715C46.4765 32.2939 46.3377 32.2529 46.1442 32.2529H45.2614L44.961 33.6669H45.7893Z" fill="#ED751C"/>
<path d="M49.8689 36.5406C49.498 36.5406 49.1544 36.5132 48.8404 36.4585C48.5309 36.3992 48.276 36.3125 48.0758 36.2031L48.358 34.8985C48.581 35.0217 48.8404 35.1175 49.1316 35.1904C49.4275 35.2634 49.7096 35.2999 49.9781 35.2999C50.2739 35.2999 50.4924 35.2725 50.6335 35.2178C50.7791 35.1631 50.8701 35.0582 50.9065 34.8985C50.9111 34.8803 50.9156 34.8529 50.9156 34.8164C50.9156 34.7069 50.861 34.6225 50.7518 34.561C50.6471 34.5017 50.4423 34.4196 50.1329 34.3147L49.878 34.2325C49.4821 34.0934 49.1908 33.9269 49.0042 33.7308C48.8153 33.5369 48.722 33.2883 48.722 32.9827C48.722 32.8368 48.7357 32.7068 48.7676 32.5904C48.8813 32.0431 49.1498 31.6371 49.5685 31.368C49.9918 31.0943 50.5925 30.9575 51.3707 30.9575C51.6552 30.9575 51.9487 30.9825 52.2536 31.0304C52.5563 31.0806 52.8043 31.1376 53 31.2038L52.7178 32.5175C52.2673 32.3168 51.8122 32.2164 51.3525 32.2164C51.0544 32.2164 50.8246 32.2415 50.6608 32.2894C50.5015 32.3327 50.4082 32.4308 50.3786 32.5813C50.3718 32.5996 50.3695 32.6247 50.3695 32.6543C50.3695 32.7524 50.4173 32.8276 50.5151 32.8824C50.6107 32.9325 50.8087 32.9987 51.1068 33.0831L51.2797 33.1378C51.7462 33.2792 52.0761 33.4548 52.2718 33.6669C52.4721 33.8745 52.5722 34.1299 52.5722 34.4332C52.5722 34.5496 52.554 34.7047 52.5176 34.8985C52.4084 35.4276 52.1467 35.8359 51.7348 36.121C51.3207 36.4015 50.6995 36.5406 49.8689 36.5406Z" fill="#ED751C"/>
</svg>
